<?xml version="1.0" standalone="no"?>
<!DOCTYPE svg PUBLIC "-//W3C//DTD SVG 20010904//EN"
 "http://www.w3.org/TR/2001/REC-SVG-20010904/DTD/svg10.dtd">
<svg version="1.0" xmlns="http://www.w3.org/2000/svg"
 width="24.000000pt" height="24.000000pt" viewBox="0 0 24.000000 24.000000"
 preserveAspectRatio="xMidYMid meet">

<g transform="translate(0.000000,24.000000) scale(0.100000,-0.100000)"
fill="currentColor" stroke="none">
<path d="M30 201 c0 -6 4 -13 10 -16 6 -4 1 -18 -12 -35 -20 -27 -20 -30 -4
-54 24 -37 72 -59 114 -52 20 3 42 1 49 -6 7 -6 17 -8 20 -4 7 7 -156 176
-169 176 -5 0 -8 -4 -8 -9z m50 -75 c0 -28 18 -46 47 -46 13 0 23 -4 23 -10 0
-22 -60 -9 -92 19 -32 29 -32 29 -14 50 22 24 36 19 36 -13z"/>
<path d="M95 190 c3 -5 17 -10 30 -10 14 0 39 -13 57 -29 27 -24 30 -31 20
-44 -8 -10 -9 -17 -3 -21 6 -4 15 3 21 14 14 26 -1 55 -43 80 -33 21 -93 28
-82 10z"/>
<path d="M130 156 c0 -2 8 -10 18 -17 15 -13 16 -12 3 4 -13 16 -21 21 -21 13z"/>
</g>
</svg>
